<svg width="181" height="41" viewBox="0 0 181 41" fill="none" xmlns="http://www.w3.org/2000/svg">
<path d="M82.0609 25.1685L81.2437 22.9176H76.7276L75.9104 25.1685H74.491L78.233 15.1326H79.7383L83.4802 25.1685H82.0609ZM77.1864 21.6703H80.7849L78.9785 16.724L77.1864 21.6703ZM86.5136 14.0574V12.9678H90.3846V14.0574H86.5136ZM90.9007 25.1685V17.6846L85.7394 25.1685H84.6642V15.1326H85.9975V22.6308L91.1588 15.1326H92.234V25.1685H90.9007ZM101.736 23.9068H102.811V27.0896H101.478V25.1685H94.8539V27.0896H93.5205V23.9068H94.3951C95.0164 23.1326 95.327 21.957 95.327 20.3799V15.1326H101.736V23.9068ZM95.9005 23.9068H100.402V16.38H96.6603V20.4086C96.6603 21.9283 96.407 23.0944 95.9005 23.9068ZM105.683 23.9068H110.342V25.1685H104.349V15.1326H110.27V16.3943H105.683V19.4767H109.912V20.724H105.683V23.9068ZM118.16 15.1326H119.479V25.1685H118.16V20.6523H113.285V25.1685H111.952V15.1326H113.285V19.3907H118.16V15.1326ZM128.049 15.1326V16.3943H125.082V25.1685H123.763V16.3943H120.809V15.1326H128.049ZM135.605 25.1685V17.6846L130.444 25.1685H129.369V15.1326H130.702V22.6308L135.863 15.1326H136.939V25.1685H135.605ZM146.383 25.1685H144.749L140.419 20.3513V25.1685H139.085V15.1326H140.419V19.6631L144.605 15.1326H146.24L141.809 20.0072L146.383 25.1685ZM154.361 25.1685L153.544 22.9176H149.028L148.211 25.1685H146.791L150.533 15.1326H152.039L155.781 25.1685H154.361ZM149.487 21.6703H153.085L151.279 16.724L149.487 21.6703Z" fill="black"/>
<rect x="50.6277" y="0.448027" width="129.928" height="39.4264" rx="19.7132" stroke="black" stroke-width="0.896055"/>
<circle cx="20.1612" cy="20.1612" r="20.1612" fill="#181818"/>
<path d="M16.3366 25.9039C16.2765 25.966 16.2295 26.0389 16.1983 26.1186C16.1671 26.1984 16.1523 26.2833 16.1548 26.3686C16.1573 26.4539 16.177 26.5379 16.2127 26.6158C16.2485 26.6936 16.2996 26.7639 16.3632 26.8225C16.4268 26.8811 16.5016 26.9269 16.5833 26.9573C16.6651 26.9877 16.7522 27.0022 16.8396 26.9997C16.9271 26.9973 17.0132 26.9781 17.093 26.9433C17.1729 26.9084 17.2449 26.8585 17.305 26.7965L22.9664 20.9499C23.0833 20.8293 23.1484 20.6696 23.1484 20.5037C23.1484 20.3377 23.0833 20.178 22.9664 20.0574L17.305 14.2101C17.2453 14.1468 17.1733 14.0956 17.0931 14.0596C17.013 14.0236 16.9263 14.0035 16.8381 14.0004C16.75 13.9974 16.662 14.0114 16.5795 14.0418C16.4969 14.0722 16.4214 14.1182 16.3572 14.1773C16.293 14.2364 16.2416 14.3073 16.2058 14.386C16.1699 14.4646 16.1505 14.5494 16.1486 14.6355C16.1467 14.7215 16.1623 14.8071 16.1946 14.8872C16.2268 14.9673 16.2751 15.0403 16.3366 15.1021L21.5663 20.5037L16.3366 25.9039Z" fill="#FBFBFB"/>
</svg>
