<svg width="956" height="112" viewBox="0 0 956 112" fill="none" xmlns="http://www.w3.org/2000/svg">
<rect x="133.398" width="822.603" height="111.163" rx="36.1278" fill="#F8F8F8"/>
<circle cx="900.411" cy="55.5831" r="33.3488" fill="#D9D9D9"/>
<rect y="51.7725" width="48.2755" height="48.2755" fill="#0B99FF"/>
<circle cx="44.465" cy="55.5822" r="44.465" fill="#0B99FF"/>
<path d="M197.224 65.3477L195.165 59.6756H183.784L181.725 65.3477H178.148L187.578 40.0582H191.371L200.801 65.3477H197.224ZM184.94 56.5325H194.009L189.456 44.0684L184.94 56.5325ZM217.992 40.0582H221.135V65.3477H217.992V62.2407C216.427 64.6251 214.151 65.8173 211.164 65.8173C208.635 65.8173 206.48 64.9021 204.697 63.0716C202.915 61.217 202.024 58.9651 202.024 56.3157C202.024 53.6663 202.915 51.4264 204.697 49.5959C206.48 47.7414 208.635 46.8141 211.164 46.8141C214.151 46.8141 216.427 48.0063 217.992 50.3907V40.0582ZM211.562 62.7826C213.392 62.7826 214.921 62.1684 216.15 60.9401C217.378 59.6876 217.992 58.1462 217.992 56.3157C217.992 54.4852 217.378 52.9558 216.15 51.7275C214.921 50.475 213.392 49.8488 211.562 49.8488C209.755 49.8488 208.238 50.475 207.009 51.7275C205.781 52.9558 205.167 54.4852 205.167 56.3157C205.167 58.1462 205.781 59.6876 207.009 60.9401C208.238 62.1684 209.755 62.7826 211.562 62.7826ZM240.854 40.0582H243.998V65.3477H240.854V62.2407C239.289 64.6251 237.013 65.8173 234.026 65.8173C231.497 65.8173 229.342 64.9021 227.559 63.0716C225.777 61.217 224.886 58.9651 224.886 56.3157C224.886 53.6663 225.777 51.4264 227.559 49.5959C229.342 47.7414 231.497 46.8141 234.026 46.8141C237.013 46.8141 239.289 48.0063 240.854 50.3907V40.0582ZM234.424 62.7826C236.254 62.7826 237.784 62.1684 239.012 60.9401C240.24 59.6876 240.854 58.1462 240.854 56.3157C240.854 54.4852 240.24 52.9558 239.012 51.7275C237.784 50.475 236.254 49.8488 234.424 49.8488C232.617 49.8488 231.1 50.475 229.872 51.7275C228.643 52.9558 228.029 54.4852 228.029 56.3157C228.029 58.1462 228.643 59.6876 229.872 60.9401C231.1 62.1684 232.617 62.7826 234.424 62.7826ZM272.749 47.2837H275.892V65.3477H272.749V62.2407C271.183 64.6251 268.907 65.8173 265.92 65.8173C263.391 65.8173 261.236 64.9021 259.454 63.0716C257.671 61.217 256.78 58.9651 256.78 56.3157C256.78 53.6663 257.671 51.4264 259.454 49.5959C261.236 47.7414 263.391 46.8141 265.92 46.8141C268.907 46.8141 271.183 48.0063 272.749 50.3907V47.2837ZM266.318 62.7826C268.148 62.7826 269.678 62.1684 270.906 60.9401C272.134 59.6876 272.749 58.1462 272.749 56.3157C272.749 54.4852 272.134 52.9558 270.906 51.7275C269.678 50.475 268.148 49.8488 266.318 49.8488C264.511 49.8488 262.994 50.475 261.766 51.7275C260.537 52.9558 259.923 54.4852 259.923 56.3157C259.923 58.1462 260.537 59.6876 261.766 60.9401C262.994 62.1684 264.511 62.7826 266.318 62.7826ZM298.971 42.6232C295.791 42.3583 294.202 43.7312 294.202 46.7418V47.2837H298.971V50.3185H294.202V65.3477H291.059V50.3185H288.168V47.2837H291.059V46.7418C291.059 44.3092 291.733 42.4667 293.082 41.2143C294.455 39.9618 296.418 39.4199 298.971 39.5885V42.6232ZM302.58 57.7608C302.893 59.3745 303.627 60.627 304.784 61.5181C305.964 62.4093 307.409 62.8548 309.119 62.8548C311.503 62.8548 313.237 61.9757 314.321 60.2175L316.995 61.7349C315.237 64.4565 312.587 65.8173 309.047 65.8173C306.18 65.8173 303.844 64.9262 302.038 63.1439C300.256 61.3375 299.364 59.0614 299.364 56.3157C299.364 53.5941 300.243 51.3301 302.002 49.5237C303.76 47.7173 306.036 46.8141 308.83 46.8141C311.479 46.8141 313.635 47.7534 315.297 49.632C316.983 51.4866 317.826 53.7265 317.826 56.3518C317.826 56.8094 317.79 57.2791 317.717 57.7608H302.58ZM308.83 49.7766C307.144 49.7766 305.747 50.2583 304.639 51.2217C303.531 52.161 302.845 53.4255 302.58 55.0151H314.646C314.381 53.305 313.707 52.0044 312.623 51.1133C311.539 50.2221 310.275 49.7766 308.83 49.7766ZM323.607 57.7608C323.92 59.3745 324.655 60.627 325.811 61.5181C326.991 62.4093 328.436 62.8548 330.146 62.8548C332.531 62.8548 334.265 61.9757 335.349 60.2175L338.022 61.7349C336.264 64.4565 333.615 65.8173 330.074 65.8173C327.208 65.8173 324.872 64.9262 323.065 63.1439C321.283 61.3375 320.392 59.0614 320.392 56.3157C320.392 53.5941 321.271 51.3301 323.029 49.5237C324.787 47.7173 327.063 46.8141 329.857 46.8141C332.507 46.8141 334.662 47.7534 336.324 49.632C338.01 51.4866 338.853 53.7265 338.853 56.3518C338.853 56.8094 338.817 57.2791 338.745 57.7608H323.607ZM329.857 49.7766C328.171 49.7766 326.774 50.2583 325.667 51.2217C324.559 52.161 323.872 53.4255 323.607 55.0151H335.674C335.409 53.305 334.735 52.0044 333.651 51.1133C332.567 50.2221 331.302 49.7766 329.857 49.7766ZM357.388 40.0582H360.531V65.3477H357.388V62.2407C355.822 64.6251 353.546 65.8173 350.56 65.8173C348.031 65.8173 345.875 64.9021 344.093 63.0716C342.311 61.217 341.419 58.9651 341.419 56.3157C341.419 53.6663 342.311 51.4264 344.093 49.5959C345.875 47.7414 348.031 46.8141 350.56 46.8141C353.546 46.8141 355.822 48.0063 357.388 50.3907V40.0582ZM350.957 62.7826C352.788 62.7826 354.317 62.1684 355.545 60.9401C356.774 59.6876 357.388 58.1462 357.388 56.3157C357.388 54.4852 356.774 52.9558 355.545 51.7275C354.317 50.475 352.788 49.8488 350.957 49.8488C349.151 49.8488 347.633 50.475 346.405 51.7275C345.177 52.9558 344.563 54.4852 344.563 56.3157C344.563 58.1462 345.177 59.6876 346.405 60.9401C347.633 62.1684 349.151 62.7826 350.957 62.7826ZM375.264 46.8141C377.793 46.8141 379.949 47.7414 381.731 49.5959C383.514 51.4264 384.405 53.6663 384.405 56.3157C384.405 58.9651 383.514 61.217 381.731 63.0716C379.949 64.9021 377.793 65.8173 375.264 65.8173C372.278 65.8173 370.002 64.6251 368.436 62.2407V65.3477H365.293V40.0582H368.436V50.3907C370.002 48.0063 372.278 46.8141 375.264 46.8141ZM374.867 62.7826C376.673 62.7826 378.191 62.1684 379.419 60.9401C380.647 59.6876 381.262 58.1462 381.262 56.3157C381.262 54.4852 380.647 52.9558 379.419 51.7275C378.191 50.475 376.673 49.8488 374.867 49.8488C373.037 49.8488 371.507 50.475 370.279 51.7275C369.05 52.9558 368.436 54.4852 368.436 56.3157C368.436 58.1462 369.05 59.6876 370.279 60.9401C371.507 62.1684 373.037 62.7826 374.867 62.7826ZM403.112 47.2837H406.255V65.3477H403.112V62.2407C401.547 64.6251 399.271 65.8173 396.284 65.8173C393.755 65.8173 391.599 64.9021 389.817 63.0716C388.035 61.217 387.144 58.9651 387.144 56.3157C387.144 53.6663 388.035 51.4264 389.817 49.5959C391.599 47.7414 393.755 46.8141 396.284 46.8141C399.271 46.8141 401.547 48.0063 403.112 50.3907V47.2837ZM396.681 62.7826C398.512 62.7826 400.041 62.1684 401.27 60.9401C402.498 59.6876 403.112 58.1462 403.112 56.3157C403.112 54.4852 402.498 52.9558 401.27 51.7275C400.041 50.475 398.512 49.8488 396.681 49.8488C394.875 49.8488 393.358 50.475 392.129 51.7275C390.901 52.9558 390.287 54.4852 390.287 56.3157C390.287 58.1462 390.901 59.6876 392.129 60.9401C393.358 62.1684 394.875 62.7826 396.681 62.7826ZM419.507 65.8173C416.786 65.8173 414.522 64.9141 412.715 63.1077C410.909 61.2773 410.006 59.0132 410.006 56.3157C410.006 53.6182 410.909 51.3662 412.715 49.5598C414.522 47.7293 416.786 46.8141 419.507 46.8141C421.29 46.8141 422.891 47.2476 424.312 48.1147C425.734 48.9577 426.793 50.1017 427.492 51.5468L424.854 53.0642C424.397 52.1008 423.686 51.3301 422.723 50.752C421.784 50.174 420.712 49.8849 419.507 49.8849C417.701 49.8849 416.184 50.4991 414.955 51.7275C413.751 52.9558 413.149 54.4852 413.149 56.3157C413.149 58.1221 413.751 59.6395 414.955 60.8678C416.184 62.0962 417.701 62.7103 419.507 62.7103C420.712 62.7103 421.796 62.4333 422.759 61.8794C423.722 61.3013 424.457 60.5306 424.963 59.5672L427.636 61.1207C426.866 62.5417 425.758 63.6858 424.312 64.5528C422.867 65.3958 421.266 65.8173 419.507 65.8173ZM446.022 65.3477H442.12L433.883 56.7854V65.3477H430.74V40.0582H433.883V55.268L441.686 47.2837H445.733L437.098 56.0267L446.022 65.3477Z" fill="#B2B2B2"/>
<path d="M903.307 47.9136V66.2358H900.297V47.9136L892.222 55.9879L890.094 53.8594L901.802 42.1514L913.51 53.8594L911.381 55.9879L903.307 47.9136Z" fill="#979797"/>
</svg>
