<svg width="29" height="29" viewBox="0 0 29 29" fill="none" xmlns="http://www.w3.org/2000/svg">
<circle cx="14.5" cy="14.5" r="14.5" fill="#F4F3F1"/>
<path d="M15.1251 12.8868C15.7509 13.035 16.2573 13.3273 16.6442 13.7637C17.0395 14.1919 17.2371 14.7312 17.2371 15.3817C17.2371 16.2462 16.9448 16.9255 16.3602 17.4195C15.7756 17.9135 15.0592 18.1606 14.2112 18.1606C13.5525 18.1606 12.9596 18.0082 12.4327 17.7036C11.9139 17.3989 11.5393 16.9543 11.3088 16.3697L12.5191 15.6657C12.7744 16.4068 13.3384 16.7773 14.2112 16.7773C14.7052 16.7773 15.0963 16.6538 15.3845 16.4068C15.6727 16.1515 15.8168 15.8098 15.8168 15.3817C15.8168 14.9535 15.6727 14.6159 15.3845 14.3689C15.0963 14.1219 14.7052 13.9984 14.2112 13.9984H13.8901L13.3219 13.1462L15.1869 10.6884H11.5681V9.35455H16.8789V10.5649L15.1251 12.8868Z" fill="black"/>
</svg>
