<svg width="242" height="45" viewBox="0 0 242 45" fill="none" xmlns="http://www.w3.org/2000/svg">
<path d="M30.9591 28L30.0656 25.4288H24.6315L23.7379 28H21.4585L26.0903 15.2353H28.6068L33.2203 28H30.9591ZM25.3244 23.4594H29.3727L27.3485 17.6971L25.3244 23.4594ZM36.9271 13.9588V12.2447H42.0329V13.9588H36.9271ZM42.2518 28V19.3382L36.2341 28H34.5929V15.2353H36.69V23.8971L42.7076 15.2353H44.3488V28H42.2518ZM56.4717 25.9941H57.8394V30.4435H55.7423V28H47.9923V30.4435H45.8953V25.9941H47.0806C47.8221 25.0216 48.1929 23.5567 48.1929 21.5994V15.2353H56.4717V25.9941ZM49.3782 25.9941H54.3747V17.2047H50.29V21.6359C50.29 23.5324 49.986 24.9851 49.3782 25.9941ZM61.7635 25.9941H67.4165V28H59.6665V15.2353H67.3253V17.2412H61.7635V20.56H66.8694V22.5476H61.7635V25.9941ZM76.9038 15.2353H79.0009V28H76.9038V22.4747H71.4332V28H69.3362V15.2353H71.4332V20.4688H76.9038V15.2353ZM89.8494 15.2353V17.2412H86.2571V28H84.16V17.2412H80.5494V15.2353H89.8494ZM99.059 28V19.3382L93.0413 28H91.4001V15.2353H93.4972V23.8971L99.5148 15.2353H101.156V28H99.059ZM113.334 28H110.835L105.802 21.9276V28H103.705V15.2353H105.802V20.9612L110.653 15.2353H113.151L107.991 21.4535L113.334 28ZM123.275 28L122.382 25.4288H116.948L116.054 28H113.775L118.406 15.2353H120.923L125.536 28H123.275ZM117.641 23.4594H121.689L119.665 17.6971L117.641 23.4594Z" fill="black"/>
<path d="M189.049 25.9941H190.416V30.4435H188.319V28H179.658V15.2353H181.755V25.9941H186.952V15.2353H189.049V25.9941ZM199.761 21.3806C200.32 21.6724 200.758 22.0735 201.074 22.5841C201.39 23.0947 201.548 23.6843 201.548 24.3529C201.548 25.3984 201.177 26.2676 200.436 26.9606C199.694 27.6535 198.788 28 197.718 28H192.248V15.2353H197.317C198.363 15.2353 199.244 15.5757 199.961 16.2565C200.691 16.9251 201.056 17.7639 201.056 18.7729C201.056 19.8792 200.624 20.7484 199.761 21.3806ZM197.317 17.2047H194.345V20.56H197.317C197.779 20.56 198.168 20.402 198.484 20.0859C198.8 19.7576 198.958 19.3565 198.958 18.8824C198.958 18.4082 198.8 18.0131 198.484 17.6971C198.168 17.3688 197.779 17.2047 197.317 17.2047ZM197.718 26.0306C198.205 26.0306 198.612 25.8604 198.94 25.52C199.281 25.1675 199.451 24.742 199.451 24.2435C199.451 23.7451 199.281 23.3257 198.94 22.9853C198.612 22.6327 198.205 22.4565 197.718 22.4565H194.345V26.0306H197.718ZM205.475 25.9941H211.128V28H203.378V15.2353H211.037V17.2412H205.475V20.56H210.581V22.5476H205.475V25.9941ZM221.345 15.2353V17.2412H217.752V28H215.655V17.2412H212.045V15.2353H221.345Z" fill="black"/>
<rect x="1" y="1" width="144" height="43" rx="19" stroke="black" stroke-width="2"/>
<rect x="159" y="1" width="82" height="43" rx="19" stroke="black" stroke-width="2"/>
</svg>
