<svg width="17" height="17" viewBox="0 0 17 17" fill="none" xmlns="http://www.w3.org/2000/svg">
<path d="M0 17V1.7C0 1.2325 0.1666 0.832433 0.4998 0.4998C0.833 0.167167 1.23307 0.000566667 1.7 0H15.3C15.7675 0 16.1678 0.1666 16.501 0.4998C16.8342 0.833 17.0006 1.23307 17 1.7V11.9C17 12.3675 16.8337 12.7679 16.501 13.1011C16.1684 13.4343 15.7681 13.6006 15.3 13.6H3.4L0 17ZM8.5 11.05C8.74083 11.05 8.94285 10.9684 9.10605 10.8052C9.26925 10.642 9.35057 10.4403 9.35 10.2C9.34943 9.95973 9.26783 9.758 9.1052 9.5948C8.94257 9.4316 8.74083 9.35 8.5 9.35C8.25917 9.35 8.05743 9.4316 7.8948 9.5948C7.73217 9.758 7.65057 9.95973 7.65 10.2C7.64943 10.4403 7.73103 10.6423 7.8948 10.8061C8.05857 10.9698 8.2603 11.0511 8.5 11.05ZM7.65 7.65H9.35V2.55H7.65V7.65Z" fill="#090806"/>
</svg>
