<svg width="767" height="591" viewBox="0 0 767 591" fill="none" xmlns="http://www.w3.org/2000/svg">
<path d="M263.955 320.22C268.235 322.26 270.375 325.64 270.375 330.36C270.375 334.04 268.975 337.04 266.175 339.36C263.415 341.64 259.795 342.78 255.315 342.78C247.635 342.78 242.555 339.54 240.075 333.06L246.015 329.64C247.255 334.08 250.355 336.3 255.315 336.3C257.955 336.3 259.975 335.74 261.375 334.62C262.775 333.46 263.475 331.92 263.475 330C263.475 328.12 262.795 326.62 261.435 325.5C260.115 324.34 258.235 323.76 255.795 323.76H250.695V317.52H254.415C256.775 317.52 258.615 316.98 259.935 315.9C261.255 314.82 261.915 313.38 261.915 311.58C261.915 309.78 261.315 308.36 260.115 307.32C258.915 306.24 257.195 305.7 254.955 305.7C250.795 305.7 247.995 307.6 246.555 311.4L240.675 307.98C243.395 302.14 248.155 299.22 254.955 299.22C259.075 299.22 262.415 300.34 264.975 302.58C267.535 304.78 268.815 307.66 268.815 311.22C268.815 315.18 267.195 318.18 263.955 320.22ZM299.743 312H306.223V342H299.743V337.68C297.303 341.08 293.803 342.78 289.243 342.78C285.123 342.78 281.603 341.26 278.683 338.22C275.763 335.14 274.303 331.4 274.303 327C274.303 322.56 275.763 318.82 278.683 315.78C281.603 312.74 285.123 311.22 289.243 311.22C293.803 311.22 297.303 312.9 299.743 316.26V312ZM283.483 333.9C285.283 335.7 287.543 336.6 290.263 336.6C292.983 336.6 295.243 335.7 297.043 333.9C298.843 332.06 299.743 329.76 299.743 327C299.743 324.24 298.843 321.96 297.043 320.16C295.243 318.32 292.983 317.4 290.263 317.4C287.543 317.4 285.283 318.32 283.483 320.16C281.683 321.96 280.783 324.24 280.783 327C280.783 329.76 281.683 332.06 283.483 333.9ZM333.876 312V318.24H320.256V342H313.776V312H333.876ZM355.248 311.22C359.368 311.22 362.888 312.76 365.808 315.84C368.728 318.88 370.188 322.6 370.188 327C370.188 331.44 368.728 335.18 365.808 338.22C362.888 341.26 359.368 342.78 355.248 342.78C350.688 342.78 347.188 341.1 344.748 337.74V354H338.268V312H344.748V316.32C347.188 312.92 350.688 311.22 355.248 311.22ZM347.448 333.9C349.248 335.7 351.508 336.6 354.228 336.6C356.948 336.6 359.208 335.7 361.008 333.9C362.808 332.06 363.708 329.76 363.708 327C363.708 324.24 362.808 321.96 361.008 320.16C359.208 318.32 356.948 317.4 354.228 317.4C351.508 317.4 349.248 318.32 347.448 320.16C345.648 321.96 344.748 324.24 344.748 327C344.748 329.76 345.648 332.06 347.448 333.9ZM395.109 312H402.009L390.489 342.96C389.089 346.76 387.129 349.6 384.609 351.48C382.089 353.36 379.169 354.2 375.849 354V347.94C377.889 348.06 379.529 347.64 380.769 346.68C382.049 345.76 383.069 344.26 383.829 342.18L384.009 341.76L371.409 312H378.309L387.429 333.84L395.109 312ZM444.115 342H436.735L426.535 328.14V342H420.175V328.26L409.975 342H402.595L414.295 326.7L403.195 312H410.575L420.175 325.14V312H426.535V325.2L436.135 312H443.515L432.415 326.7L444.115 342ZM470.134 312H476.614V342H470.134V337.68C467.694 341.08 464.194 342.78 459.634 342.78C455.514 342.78 451.994 341.26 449.074 338.22C446.154 335.14 444.694 331.4 444.694 327C444.694 322.56 446.154 318.82 449.074 315.78C451.994 312.74 455.514 311.22 459.634 311.22C464.194 311.22 467.694 312.9 470.134 316.26V312ZM453.874 333.9C455.674 335.7 457.934 336.6 460.654 336.6C463.374 336.6 465.634 335.7 467.434 333.9C469.234 332.06 470.134 329.76 470.134 327C470.134 324.24 469.234 321.96 467.434 320.16C465.634 318.32 463.374 317.4 460.654 317.4C457.934 317.4 455.674 318.32 453.874 320.16C452.074 321.96 451.174 324.24 451.174 327C451.174 329.76 452.074 332.06 453.874 333.9ZM489.087 307.8V302.16H505.887V307.8H489.087ZM505.887 312H510.867V342H504.507V322.92L489.147 342H484.167V312H490.527V331.02L505.887 312ZM313.992 367V397H307.512V373.12H293.772V397H287.292V367H313.992ZM338.49 366.22C342.61 366.22 346.13 367.76 349.05 370.84C351.97 373.88 353.43 377.6 353.43 382C353.43 386.44 351.97 390.18 349.05 393.22C346.13 396.26 342.61 397.78 338.49 397.78C333.93 397.78 330.43 396.1 327.99 392.74V409H321.51V367H327.99V371.32C330.43 367.92 333.93 366.22 338.49 366.22ZM330.69 388.9C332.49 390.7 334.75 391.6 337.47 391.6C340.19 391.6 342.45 390.7 344.25 388.9C346.05 387.06 346.95 384.76 346.95 382C346.95 379.24 346.05 376.96 344.25 375.16C342.45 373.32 340.19 372.4 337.47 372.4C334.75 372.4 332.49 373.32 330.69 375.16C328.89 376.96 327.99 379.24 327.99 382C327.99 384.76 328.89 387.06 330.69 388.9ZM373.463 397.78C369.063 397.78 365.323 396.26 362.243 393.22C359.163 390.18 357.623 386.44 357.623 382C357.623 377.56 359.163 373.82 362.243 370.78C365.323 367.74 369.063 366.22 373.463 366.22C377.903 366.22 381.643 367.74 384.683 370.78C387.763 373.82 389.303 377.56 389.303 382C389.303 386.44 387.763 390.18 384.683 393.22C381.643 396.26 377.903 397.78 373.463 397.78ZM366.803 388.78C368.603 390.58 370.823 391.48 373.463 391.48C376.103 391.48 378.323 390.58 380.123 388.78C381.923 386.98 382.823 384.72 382.823 382C382.823 379.28 381.923 377.02 380.123 375.22C378.323 373.42 376.103 372.52 373.463 372.52C370.823 372.52 368.603 373.42 366.803 375.22C365.003 377.02 364.103 379.28 364.103 382C364.103 384.72 365.003 386.98 366.803 388.78ZM400.263 384.76C400.743 387.04 401.843 388.8 403.563 390.04C405.283 391.24 407.383 391.84 409.863 391.84C413.303 391.84 415.883 390.6 417.603 388.12L422.943 391.24C419.983 395.6 415.603 397.78 409.803 397.78C404.923 397.78 400.983 396.3 397.983 393.34C394.983 390.34 393.483 386.56 393.483 382C393.483 377.52 394.963 373.78 397.923 370.78C400.883 367.74 404.683 366.22 409.323 366.22C413.723 366.22 417.323 367.76 420.123 370.84C422.963 373.92 424.383 377.66 424.383 382.06C424.383 382.74 424.303 383.64 424.143 384.76H400.263ZM400.203 379.48H417.843C417.403 377.04 416.383 375.2 414.783 373.96C413.223 372.72 411.383 372.1 409.263 372.1C406.863 372.1 404.863 372.76 403.263 374.08C401.663 375.4 400.643 377.2 400.203 379.48ZM456.605 397H448.865L436.565 383.14V397H430.085V367H436.565V380.26L448.205 367H456.125L442.925 381.7L456.605 397ZM483.884 367V373.24H474.104V397H467.624V373.24H457.784V367H483.884Z" fill="black"/>
<rect x="1.5" y="1.5" width="764" height="588" stroke="black" stroke-width="3"/>
<path d="M400.248 216.455C407.533 216.495 411.48 216.82 414.052 219.393C416.997 222.337 416.997 227.074 416.997 236.547V239.897C416.997 249.374 416.997 254.111 414.052 257.055C411.111 259.996 406.371 259.996 396.898 259.996H370.099C360.626 259.996 355.886 259.996 352.945 257.055C350 254.107 350 249.374 350 239.897V236.547C350 227.074 350 222.337 352.945 219.393C355.517 216.82 359.463 216.495 366.749 216.455" stroke="black" stroke-width="3.67346" stroke-linecap="round"/>
<path d="M383.503 236.548V193M383.503 193L393.552 204.724M383.503 193L373.453 204.724" stroke="black" stroke-width="3.67346" stroke-linecap="round" stroke-linejoin="round"/>
</svg>
