<svg width="29" height="29" viewBox="0 0 29 29" fill="none" xmlns="http://www.w3.org/2000/svg">
<circle cx="14.5" cy="14.5" r="14.5" fill="#090806"/>
<path d="M22 13.9999C22.0012 14.919 21.821 15.8292 21.4697 16.6785C21.1184 17.5278 20.603 18.2994 19.953 18.9491C19.3026 19.5996 18.5305 20.1155 17.6806 20.4674C16.8308 20.8193 15.9199 21.0002 15.0001 20.9999C14.0101 21.0021 13.031 20.7931 12.1282 20.3869L9.20183 20.8198C9.05653 20.8435 8.90764 20.8314 8.76809 20.7845C8.62853 20.7376 8.50254 20.6574 8.40104 20.5507C8.29955 20.4441 8.22562 20.3143 8.18569 20.1726C8.14575 20.0309 8.14102 19.8816 8.17189 19.7376L8.57827 16.7689C8.19171 15.8972 7.99465 14.9534 8.00011 13.9999C7.99894 13.0809 8.17915 12.1706 8.53041 11.3214C8.88168 10.4721 9.39709 9.7005 10.0471 9.05079C10.6975 8.4003 11.4696 7.88437 12.3195 7.53248C13.1693 7.18059 14.0802 6.99965 15.0001 7C16.8576 7.00012 18.6391 7.73776 19.953 9.05079C20.6027 9.70075 21.1179 10.4724 21.4691 11.3216C21.8204 12.1708 22.0008 13.081 22 13.9999Z" stroke="#FBFBFB" stroke-width="1.13513" stroke-linecap="round" stroke-linejoin="round"/>
</svg>
