<svg width="42" height="42" viewBox="0 0 42 42" fill="none" xmlns="http://www.w3.org/2000/svg">
<rect width="42" height="42" rx="12" fill="#E5E4E2"/>
<path d="M15.0005 16H11.7805C11.4105 16 11.0405 16.32 11.0905 16.84L12.6505 26.83C12.6505 26.83 14.5005 19.47 14.8605 17.7C14.9705 17.17 15.4705 17 15.8405 17H21.0005C21.0005 17 20.3005 14.92 20.2305 14.69C20.1105 14.25 19.8905 14 19.4505 14H16.1405C15.7805 14 15.4405 14.23 15.3405 14.64C15.2505 15.04 15.0005 16 15.0005 16ZM19.8805 16H15.8805C15.8805 16 16.3005 15 16.7505 15H18.8805C19.3605 15 19.8805 16 19.8805 16ZM13.6705 27.25C13.3605 27.72 12.9105 28 12.4105 28H28.1405C28.6805 28 29.0605 27.69 29.1705 27.17C29.6105 24.98 30.8505 18.73 30.8505 18.73C30.9205 18.23 30.5505 18 30.2305 18H27.0005V16.53C27.0005 16.37 26.7405 16 26.3405 16H22.5805C22.0605 16 21.7105 16.58 21.7105 16.58L21.0005 18H16.5905C16.2705 18 15.9605 18.19 15.9005 18.5C15.9005 18.5 14.3105 25.2 14.1805 25.83C14.1105 26.2 13.9605 26.82 13.6705 27.25ZM26.3805 18H22.0005C22.0005 18 22.5805 17 23.1305 17H25.4205C26.1305 17 26.3805 18 26.3805 18Z" fill="#090806"/>
</svg>
