<svg width="40" height="17" viewBox="0 0 40 17" fill="none" xmlns="http://www.w3.org/2000/svg">
<rect width="40" height="17" rx="8.5" fill="#FBFBFB"/>
<path d="M10.49 6.5H13.43V10H12.968V6.948H10.952V10H10.49V6.5ZM17.34 9.559C16.9807 9.909 16.5467 10.084 16.038 10.084C15.52 10.084 15.0837 9.909 14.729 9.559C14.3743 9.20433 14.197 8.768 14.197 8.25C14.197 7.732 14.3743 7.298 14.729 6.948C15.0837 6.59333 15.52 6.416 16.038 6.416C16.5513 6.416 16.9853 6.59333 17.34 6.948C17.6993 7.298 17.879 7.732 17.879 8.25C17.879 8.76333 17.6993 9.19967 17.34 9.559ZM15.058 9.237C15.324 9.503 15.6507 9.636 16.038 9.636C16.4253 9.636 16.752 9.503 17.018 9.237C17.284 8.96167 17.417 8.63267 17.417 8.25C17.417 7.86267 17.284 7.536 17.018 7.27C16.752 6.99933 16.4253 6.864 16.038 6.864C15.6507 6.864 15.324 6.99933 15.058 7.27C14.792 7.536 14.659 7.86267 14.659 8.25C14.659 8.63267 14.792 8.96167 15.058 9.237ZM20.2831 10.084C19.7558 10.084 19.3171 9.909 18.9671 9.559C18.6171 9.19967 18.4421 8.76333 18.4421 8.25C18.4421 7.732 18.6171 7.298 18.9671 6.948C19.3171 6.59333 19.7558 6.416 20.2831 6.416C20.6284 6.416 20.9388 6.5 21.2141 6.668C21.4894 6.83133 21.6901 7.053 21.8161 7.333L21.4381 7.55C21.3448 7.34 21.1931 7.17433 20.9831 7.053C20.7778 6.927 20.5444 6.864 20.2831 6.864C19.8958 6.864 19.5691 6.99933 19.3031 7.27C19.0371 7.536 18.9041 7.86267 18.9041 8.25C18.9041 8.63267 19.0371 8.96167 19.3031 9.237C19.5691 9.503 19.8958 9.636 20.2831 9.636C20.5398 9.636 20.7708 9.57533 20.9761 9.454C21.1861 9.33267 21.3494 9.16467 21.4661 8.95L21.8511 9.174C21.7064 9.454 21.4941 9.67567 21.2141 9.839C20.9341 10.0023 20.6238 10.084 20.2831 10.084ZM22.0261 6.5H24.9661V6.948H23.7271V10H23.2651V6.948H22.0261V6.5ZM25.9911 7.83H26.9501C27.2721 7.83 27.5474 7.93267 27.7761 8.138C28.0047 8.33867 28.1191 8.59767 28.1191 8.915C28.1191 9.237 28.0047 9.49833 27.7761 9.699C27.5567 9.89967 27.2814 10 26.9501 10H25.5291V6.5H25.9911V7.83ZM28.6091 10V6.5H29.0711V10H28.6091ZM25.9911 9.552H26.9501C27.1507 9.552 27.3187 9.49367 27.4541 9.377C27.5894 9.25567 27.6571 9.10167 27.6571 8.915C27.6571 8.72833 27.5894 8.57667 27.4541 8.46C27.3187 8.33867 27.1507 8.278 26.9501 8.278H25.9911V9.552Z" fill="black"/>
</svg>
