<svg width="8" height="15" viewBox="0 0 8 15" fill="none" xmlns="http://www.w3.org/2000/svg">
<path d="M0.214297 13.5679C0.146014 13.6386 0.092632 13.7217 0.0571987 13.8126C0.0217654 13.9034 0.00497454 14.0003 0.00778582 14.0975C0.0105971 14.1947 0.0329551 14.2904 0.073583 14.3792C0.114211 14.468 0.172313 14.548 0.244572 14.6148C0.316831 14.6816 0.401833 14.7338 0.494723 14.7685C0.587613 14.8032 0.686572 14.8196 0.78595 14.8168C0.885329 14.8141 0.983181 14.7922 1.07392 14.7525C1.16466 14.7127 1.2465 14.6559 1.31479 14.5852L7.74819 7.92141C7.88105 7.78393 7.95508 7.60192 7.95508 7.41274C7.95508 7.22355 7.88105 7.04154 7.74819 6.90407L1.31479 0.23953C1.24696 0.167294 1.16513 0.108962 1.07405 0.0679242C0.982983 0.0268867 0.884483 0.00396115 0.784278 0.000478332C0.684072 -0.00300449 0.584158 0.013026 0.490339 0.0476373C0.396519 0.0822487 0.310665 0.134751 0.237763 0.202096C0.16486 0.269441 0.106363 0.350285 0.0656691 0.439933C0.024975 0.529581 0.00289527 0.626246 0.000712097 0.724312C-0.00147107 0.822378 0.0162857 0.919892 0.0529515 1.01119C0.0896174 1.10248 0.144461 1.18574 0.214297 1.25613L6.15725 7.41274L0.214297 13.5679Z" fill="black"/>
</svg>
