<svg width="8" height="15" viewBox="0 0 8 15" fill="none" xmlns="http://www.w3.org/2000/svg">
<path d="M7.74078 1.24928C7.80906 1.17859 7.86245 1.09543 7.89788 1.00456C7.93331 0.913691 7.9501 0.816883 7.94729 0.719664C7.94448 0.622445 7.92212 0.52672 7.8815 0.437954C7.84087 0.349188 7.78277 0.269119 7.71051 0.20232C7.63825 0.13552 7.55324 0.083298 7.46036 0.0486348C7.36747 0.0139715 7.26851 -0.00245401 7.16913 0.00029617C7.06975 0.00304635 6.9719 0.0249183 6.88116 0.0646632C6.79042 0.104408 6.70857 0.161248 6.64029 0.231936L0.206885 6.89573C0.0740267 7.03321 0 7.21522 0 7.4044C0 7.59359 0.0740267 7.7756 0.206885 7.91307L6.64029 14.5776C6.70812 14.6498 6.78995 14.7082 6.88102 14.7492C6.9721 14.7903 7.07059 14.8132 7.1708 14.8167C7.27101 14.8201 7.37092 14.8041 7.46474 14.7695C7.55856 14.7349 7.64441 14.6824 7.71732 14.615C7.79022 14.5477 7.84871 14.4669 7.88941 14.3772C7.9301 14.2876 7.95218 14.1909 7.95437 14.0928C7.95655 13.9948 7.93879 13.8972 7.90213 13.806C7.86546 13.7147 7.81062 13.6314 7.74078 13.561L1.79783 7.4044L7.74078 1.24928Z" fill="#ECECEC"/>
</svg>
