<svg width="16" height="16" viewBox="0 0 16 16" fill="none" xmlns="http://www.w3.org/2000/svg">
<g clip-path="url(#clip0_64_27)">
<path d="M15.0673 0.776002C14.5226 0.254002 13.9216 -0.010498 13.2801 -0.010498C12.2771 -0.010498 11.5454 0.637502 11.3451 0.836002C11.0634 1.115 1.45213 10.7298 1.45213 10.7298C1.38914 10.793 1.34366 10.8716 1.32015 10.9578C1.1034 11.7587 0.0176482 15.3128 0.00686696 15.3485C-0.0488674 15.5305 0.000866964 15.7288 0.135117 15.863C0.229823 15.9574 0.358106 16.0105 0.491851 16.0105C0.543601 16.0105 0.595836 16.0028 0.646836 15.986C0.683586 15.974 4.35209 14.7883 4.95582 14.608C5.03548 14.584 5.10808 14.5409 5.16732 14.4825C5.54882 14.1055 14.5131 5.241 15.1081 4.6265C15.7236 3.99225 16.0293 3.33175 16.0176 2.66375C16.0053 2.00425 15.6856 1.36925 15.0673 0.776002ZM11.1859 2.435C11.4406 2.49675 12.0414 2.69847 12.6549 3.31749C13.2749 3.94299 13.4427 4.65799 13.4739 4.82074C11.5079 6.77649 6.98241 11.254 5.19841 13.0187C5.03366 12.635 4.76741 12.1727 4.33915 11.7412C3.81616 11.2142 3.2839 10.9165 2.8734 10.749C4.6389 8.98325 9.24965 4.3705 11.1859 2.435ZM2.19441 11.593C2.46916 11.666 3.0399 11.8777 3.62166 12.4642C4.06966 12.916 4.28116 13.4142 4.37616 13.718C3.68116 13.9415 2.15941 14.4667 1.19241 14.7785C1.47891 13.8357 1.9629 12.3675 2.19441 11.593ZM14.3824 3.91197C14.3509 3.94413 14.3193 3.97622 14.2876 4.00822C14.1296 3.60121 13.8524 3.07822 13.3724 2.59422C12.8819 2.09972 12.3844 1.80797 11.9856 1.63547C12.0196 1.60172 12.0459 1.57521 12.0561 1.56522C12.1134 1.50871 12.6326 1.01247 13.2799 1.01247C13.6524 1.01247 14.0181 1.18247 14.3676 1.51747C14.7819 1.91472 14.9954 2.30672 15.0024 2.68297C15.0091 3.06697 14.8006 3.48047 14.3824 3.91197Z" fill="#DADADA"/>
</g>
<defs>
<clipPath id="clip0_64_27">
<rect width="16" height="16" fill="white"/>
</clipPath>
</defs>
</svg>
