<svg width="59" height="15" viewBox="0 0 59 15" fill="none" xmlns="http://www.w3.org/2000/svg">
<path d="M5.06688 2.47731C5.96433 0.825769 6.41271 0 7.0835 0C7.75429 0 8.20267 0.825769 9.10013 2.47731L9.33246 2.90473C9.58746 3.37431 9.71496 3.60911 9.91329 3.76394C10.1116 3.91877 10.3595 3.9762 10.8554 4.09105L11.3059 4.19572C13.0484 4.60061 13.9189 4.80269 14.1265 5.48671C14.3333 6.17001 13.7397 6.88311 12.5518 8.30858L12.2444 8.67712C11.9072 9.08201 11.738 9.28482 11.6622 9.53487C11.5864 9.78566 11.6119 10.0561 11.6629 10.5962L11.7096 11.0883C11.8888 12.9906 11.9788 13.9414 11.4362 14.3637C10.8936 14.7861 10.0776 14.4008 8.44704 13.6303L8.02417 13.4311C7.56092 13.2116 7.32929 13.1025 7.0835 13.1025C6.83771 13.1025 6.60608 13.2116 6.14283 13.4311L5.72067 13.6303C4.08937 14.4008 3.27337 14.7861 2.7315 14.3645C2.18821 13.9414 2.27817 12.9906 2.45737 11.0883L2.50412 10.5969C2.55512 10.0561 2.58062 9.78566 2.50412 9.5356C2.42904 9.28482 2.25975 9.08201 1.92258 8.67785L1.61517 8.30858C0.427292 6.88383 -0.166292 6.17074 0.0405415 5.48671C0.247375 4.80269 1.11933 4.59988 2.86183 4.19572L3.31233 4.09105C3.80746 3.9762 4.05467 3.91877 4.25371 3.76394C4.45275 3.60911 4.57954 3.37431 4.83454 2.90473L5.06688 2.47731Z" fill="#BDB9B5"/>
<path d="M27.0669 2.47731C27.9643 0.825769 28.4127 0 29.0835 0C29.7543 0 30.2027 0.825769 31.1001 2.47731L31.3325 2.90473C31.5875 3.37431 31.715 3.60911 31.9133 3.76394C32.1116 3.91877 32.3595 3.9762 32.8554 4.09105L33.3059 4.19572C35.0484 4.60061 35.9189 4.80269 36.1265 5.48671C36.3333 6.17001 35.7397 6.88311 34.5518 8.30858L34.2444 8.67712C33.9072 9.08201 33.738 9.28482 33.6622 9.53487C33.5864 9.78566 33.6119 10.0561 33.6629 10.5962L33.7096 11.0883C33.8888 12.9906 33.9788 13.9414 33.4362 14.3637C32.8936 14.7861 32.0776 14.4008 30.447 13.6303L30.0242 13.4311C29.5609 13.2116 29.3293 13.1025 29.0835 13.1025C28.8377 13.1025 28.6061 13.2116 28.1428 13.4311L27.7207 13.6303C26.0894 14.4008 25.2734 14.7861 24.7315 14.3645C24.1882 13.9414 24.2782 12.9906 24.4574 11.0883L24.5041 10.5969C24.5551 10.0561 24.5806 9.78566 24.5041 9.5356C24.429 9.28482 24.2598 9.08201 23.9226 8.67785L23.6152 8.30858C22.4273 6.88383 21.8337 6.17074 22.0405 5.48671C22.2474 4.80269 23.1193 4.59988 24.8618 4.19572L25.3123 4.09105C25.8075 3.9762 26.0547 3.91877 26.2537 3.76394C26.4528 3.60911 26.5795 3.37431 26.8345 2.90473L27.0669 2.47731Z" fill="#BDB9B5"/>
<path d="M49.0669 2.47731C49.9643 0.825769 50.4127 0 51.0835 0C51.7543 0 52.2027 0.825769 53.1001 2.47731L53.3325 2.90473C53.5875 3.37431 53.715 3.60911 53.9133 3.76394C54.1116 3.91877 54.3595 3.9762 54.8554 4.09105L55.3059 4.19572C57.0484 4.60061 57.9189 4.80269 58.1265 5.48671C58.3333 6.17001 57.7397 6.88311 56.5518 8.30858L56.2444 8.67712C55.9072 9.08201 55.738 9.28482 55.6622 9.53487C55.5864 9.78566 55.6119 10.0561 55.6629 10.5962L55.7096 11.0883C55.8888 12.9906 55.9788 13.9414 55.4362 14.3637C54.8936 14.7861 54.0776 14.4008 52.447 13.6303L52.0242 13.4311C51.5609 13.2116 51.3293 13.1025 51.0835 13.1025C50.8377 13.1025 50.6061 13.2116 50.1428 13.4311L49.7207 13.6303C48.0894 14.4008 47.2734 14.7861 46.7315 14.3645C46.1882 13.9414 46.2782 12.9906 46.4574 11.0883L46.5041 10.5969C46.5551 10.0561 46.5806 9.78566 46.5041 9.5356C46.429 9.28482 46.2598 9.08201 45.9226 8.67785L45.6152 8.30858C44.4273 6.88383 43.8337 6.17074 44.0405 5.48671C44.2474 4.80269 45.1193 4.59988 46.8618 4.19572L47.3123 4.09105C47.8075 3.9762 48.0547 3.91877 48.2537 3.76394C48.4528 3.60911 48.5795 3.37431 48.8345 2.90473L49.0669 2.47731Z" fill="#BDB9B5"/>
</svg>
