<svg width="308" height="58" viewBox="0 0 308 58" fill="none" xmlns="http://www.w3.org/2000/svg">
<rect width="308" height="58" rx="29" fill="#FBFBFB"/>
<path d="M277.5 33C275.683 33 274.146 32.3707 272.888 31.112C271.63 29.8533 271.001 28.316 271 26.5C270.999 24.684 271.629 23.1467 272.888 21.888C274.147 20.6293 275.685 20 277.5 20C279.315 20 280.853 20.6293 282.113 21.888C283.373 23.1467 284.002 24.684 284 26.5C284 27.2333 283.883 27.925 283.65 28.575C283.417 29.225 283.1 29.8 282.7 30.3L288.3 35.9C288.483 36.0833 288.575 36.3167 288.575 36.6C288.575 36.8833 288.483 37.1167 288.3 37.3C288.117 37.4833 287.883 37.575 287.6 37.575C287.317 37.575 287.083 37.4833 286.9 37.3L281.3 31.7C280.8 32.1 280.225 32.4167 279.575 32.65C278.925 32.8833 278.233 33 277.5 33ZM277.5 31C278.75 31 279.813 30.5627 280.688 29.688C281.563 28.8133 282.001 27.7507 282 26.5C281.999 25.2493 281.562 24.187 280.688 23.313C279.814 22.439 278.751 22.0013 277.5 22C276.249 21.9987 275.186 22.4363 274.313 23.313C273.44 24.1897 273.002 25.252 273 26.5C272.998 27.748 273.436 28.8107 274.313 29.688C275.19 30.5653 276.253 31.0027 277.5 31Z" fill="#BDB9B5"/>
<path d="M28.8518 22.2116V34H26.9151V24.064H22.1155V34H20.1788V22.2116H28.8518ZM35.0706 34.2189C33.8356 34.2189 32.7858 33.7923 31.9214 32.939C31.0569 32.0858 30.6246 31.0361 30.6246 29.7898C30.6246 28.5436 31.0569 27.4939 31.9214 26.6407C32.7858 25.7874 33.8356 25.3608 35.0706 25.3608C36.3168 25.3608 37.3665 25.7874 38.2197 26.6407C39.0842 27.4939 39.5165 28.5436 39.5165 29.7898C39.5165 31.0361 39.0842 32.0858 38.2197 32.939C37.3665 33.7923 36.3168 34.2189 35.0706 34.2189ZM33.2012 31.6928C33.7065 32.1981 34.3296 32.4507 35.0706 32.4507C35.8115 32.4507 36.4346 32.1981 36.9399 31.6928C37.4451 31.1876 37.6977 30.5533 37.6977 29.7898C37.6977 29.0264 37.4451 28.3921 36.9399 27.8869C36.4346 27.3816 35.8115 27.129 35.0706 27.129C34.3296 27.129 33.7065 27.3816 33.2012 27.8869C32.696 28.3921 32.4434 29.0264 32.4434 29.7898C32.4434 30.5533 32.696 31.1876 33.2012 31.6928ZM47.2574 25.5797H48.6551V34H46.87V28.6447L42.5588 34H41.1611V25.5797H42.9462V30.9182L47.2574 25.5797ZM54.7399 34.2189C53.4712 34.2189 52.4102 33.7923 51.557 32.939C50.715 32.0858 50.2939 31.0361 50.2939 29.7898C50.2939 28.5324 50.715 27.4827 51.557 26.6407C52.4102 25.7874 53.4712 25.3608 54.7399 25.3608C55.5594 25.3608 56.306 25.5572 56.9797 25.9502C57.6533 26.3431 58.1585 26.8708 58.4953 27.5332L56.9291 28.4426C56.7383 28.0384 56.4464 27.7241 56.0534 27.4995C55.6717 27.2638 55.2282 27.1459 54.723 27.1459C53.982 27.1459 53.3589 27.3985 52.8537 27.9037C52.3597 28.4089 52.1127 29.0376 52.1127 29.7898C52.1127 30.5421 52.3597 31.1708 52.8537 31.676C53.3589 32.1812 53.982 32.4338 54.723 32.4338C55.217 32.4338 55.6605 32.3159 56.0534 32.0802C56.4576 31.8444 56.7607 31.53 56.9628 31.1371L58.529 32.0296C58.1697 32.7033 57.6533 33.2366 56.9797 33.6295C56.306 34.0225 55.5594 34.2189 54.7399 34.2189ZM67.3365 34H65.1641L61.7117 30.1098V34H59.893V25.5797H61.7117V29.3015L64.9788 25.5797H67.2018L63.4969 29.7056L67.3365 34Z" fill="#BDB9B5"/>
</svg>
