<svg width="59" height="15" viewBox="0 0 59 15" fill="none" xmlns="http://www.w3.org/2000/svg">
<path d="M5.06688 2.414C5.96433 0.804667 6.41271 0 7.0835 0C7.75429 0 8.20267 0.804667 9.10013 2.414L9.33246 2.8305C9.58746 3.28808 9.71496 3.51688 9.91329 3.66775C10.1116 3.81863 10.3595 3.87458 10.8554 3.9865L11.3059 4.0885C13.0484 4.48304 13.9189 4.67996 14.1265 5.3465C14.3333 6.01233 13.7397 6.70721 12.5518 8.09625L12.2444 8.45538C11.9072 8.84992 11.738 9.04754 11.6622 9.29121C11.5864 9.53558 11.6119 9.79908 11.6629 10.3254L11.7096 10.8049C11.8888 12.6586 11.9788 13.5851 11.4362 13.9967C10.8936 14.4082 10.0776 14.0328 8.44704 13.282L8.02417 13.0879C7.56092 12.874 7.32929 12.7677 7.0835 12.7677C6.83771 12.7677 6.60608 12.874 6.14283 13.0879L5.72067 13.282C4.08937 14.0328 3.27337 14.4082 2.7315 13.9974C2.18821 13.5851 2.27817 12.6586 2.45737 10.8049L2.50412 10.3261C2.55512 9.79908 2.58062 9.53558 2.50412 9.29192C2.42904 9.04754 2.25975 8.84992 1.92258 8.45608L1.61517 8.09625C0.427292 6.70792 -0.166292 6.01304 0.0405415 5.3465C0.247375 4.67996 1.11933 4.48233 2.86183 4.0885L3.31233 3.9865C3.80746 3.87458 4.05467 3.81863 4.25371 3.66775C4.45275 3.51688 4.57954 3.28808 4.83454 2.8305L5.06688 2.414Z" fill="#BDB9B5"/>
<path d="M27.0669 2.414C27.9643 0.804667 28.4127 0 29.0835 0C29.7543 0 30.2027 0.804667 31.1001 2.414L31.3325 2.8305C31.5875 3.28808 31.715 3.51688 31.9133 3.66775C32.1116 3.81863 32.3595 3.87458 32.8554 3.9865L33.3059 4.0885C35.0484 4.48304 35.9189 4.67996 36.1265 5.3465C36.3333 6.01233 35.7397 6.70721 34.5518 8.09625L34.2444 8.45538C33.9072 8.84992 33.738 9.04754 33.6622 9.29121C33.5864 9.53558 33.6119 9.79908 33.6629 10.3254L33.7096 10.8049C33.8888 12.6586 33.9788 13.5851 33.4362 13.9967C32.8936 14.4082 32.0776 14.0328 30.447 13.282L30.0242 13.0879C29.5609 12.874 29.3293 12.7677 29.0835 12.7677C28.8377 12.7677 28.6061 12.874 28.1428 13.0879L27.7207 13.282C26.0894 14.0328 25.2734 14.4082 24.7315 13.9974C24.1882 13.5851 24.2782 12.6586 24.4574 10.8049L24.5041 10.3261C24.5551 9.79908 24.5806 9.53558 24.5041 9.29192C24.429 9.04754 24.2598 8.84992 23.9226 8.45608L23.6152 8.09625C22.4273 6.70792 21.8337 6.01304 22.0405 5.3465C22.2474 4.67996 23.1193 4.48233 24.8618 4.0885L25.3123 3.9865C25.8075 3.87458 26.0547 3.81863 26.2537 3.66775C26.4528 3.51688 26.5795 3.28808 26.8345 2.8305L27.0669 2.414Z" fill="#BDB9B5"/>
<path d="M49.0669 2.414C49.9643 0.804667 50.4127 0 51.0835 0C51.7543 0 52.2027 0.804667 53.1001 2.414L53.3325 2.8305C53.5875 3.28808 53.715 3.51688 53.9133 3.66775C54.1116 3.81863 54.3595 3.87458 54.8554 3.9865L55.3059 4.0885C57.0484 4.48304 57.9189 4.67996 58.1265 5.3465C58.3333 6.01233 57.7397 6.70721 56.5518 8.09625L56.2444 8.45538C55.9072 8.84992 55.738 9.04754 55.6622 9.29121C55.5864 9.53558 55.6119 9.79908 55.6629 10.3254L55.7096 10.8049C55.8888 12.6586 55.9788 13.5851 55.4362 13.9967C54.8936 14.4082 54.0776 14.0328 52.447 13.282L52.0242 13.0879C51.5609 12.874 51.3293 12.7677 51.0835 12.7677C50.8377 12.7677 50.6061 12.874 50.1428 13.0879L49.7207 13.282C48.0894 14.0328 47.2734 14.4082 46.7315 13.9974C46.1882 13.5851 46.2782 12.6586 46.4574 10.8049L46.5041 10.3261C46.5551 9.79908 46.5806 9.53558 46.5041 9.29192C46.429 9.04754 46.2598 8.84992 45.9226 8.45608L45.6152 8.09625C44.4273 6.70792 43.8337 6.01304 44.0405 5.3465C44.2474 4.67996 45.1193 4.48233 46.8618 4.0885L47.3123 3.9865C47.8075 3.87458 48.0547 3.81863 48.2537 3.66775C48.4528 3.51688 48.5795 3.28808 48.8345 2.8305L49.0669 2.414Z" fill="#BDB9B5"/>
</svg>
