<svg width="30" height="20" viewBox="0 0 30 20" fill="none" xmlns="http://www.w3.org/2000/svg">
<path d="M14.6667 6C13.6058 6 12.5884 6.42143 11.8382 7.17157C11.0881 7.92172 10.6667 8.93913 10.6667 10C10.6667 11.0609 11.0881 12.0783 11.8382 12.8284C12.5884 13.5786 13.6058 14 14.6667 14C15.7275 14 16.7449 13.5786 17.4951 12.8284C18.2452 12.0783 18.6667 11.0609 18.6667 10C18.6667 8.93913 18.2452 7.92172 17.4951 7.17157C16.7449 6.42143 15.7275 6 14.6667 6ZM14.6667 16.6667C12.8986 16.6667 11.2029 15.9643 9.95262 14.714C8.70238 13.4638 8 11.7681 8 10C8 8.23189 8.70238 6.5362 9.95262 5.28595C11.2029 4.03571 12.8986 3.33333 14.6667 3.33333C16.4348 3.33333 18.1305 4.03571 19.3807 5.28595C20.631 6.5362 21.3333 8.23189 21.3333 10C21.3333 11.7681 20.631 13.4638 19.3807 14.714C18.1305 15.9643 16.4348 16.6667 14.6667 16.6667ZM14.6667 0C8 0 2.30667 4.14667 0 10C2.30667 15.8533 8 20 14.6667 20C21.3333 20 27.0267 15.8533 29.3333 10C27.0267 4.14667 21.3333 0 14.6667 0Z" fill="black"/>
</svg>
